<svg width="390" height="149" viewBox="0 0 390 149" fill="none" xmlns="http://www.w3.org/2000/svg">
<g clip-path="url(#clip0_12635_35618)">
<g filter="url(#filter0_d_12635_35618)">
<path d="M0 67C0 58.163 7.16344 51 16 51H374C382.837 51 390 58.163 390 67V149H0V67Z" fill="white"/>
<path d="M44.8327 85.6828H33.166C31.441 85.6828 30.041 84.2828 30.041 82.5578V75.5238C30.041 74.5078 30.541 73.5488 31.3743 72.9658L37.2077 68.8828C38.2827 68.1328 39.7243 68.1328 40.791 68.8828L46.6243 72.9658C47.4577 73.5488 47.9577 74.5078 47.9577 75.5238V82.5578C47.9577 84.2828 46.5577 85.6828 44.8327 85.6828ZM38.9993 69.5658C38.6243 69.5658 38.2493 69.6828 37.9243 69.9078L32.091 73.9908C31.591 74.3408 31.291 74.9158 31.291 75.5238V82.5578C31.291 83.5908 32.1327 84.4328 33.166 84.4328H44.8327C45.866 84.4328 46.7077 83.5908 46.7077 82.5578V75.5238C46.7077 74.9158 46.4077 74.3408 45.9077 73.9908L40.0743 69.9078C39.7493 69.6828 39.3743 69.5738 38.9993 69.5738V69.5658Z" fill="#6562A1"/>
<path d="M42.3327 85.6836H35.666C35.3243 85.6836 35.041 85.3996 35.041 85.0586V80.8916C35.041 78.7086 36.816 76.9336 38.9993 76.9336C41.1827 76.9336 42.9577 78.7086 42.9577 80.8916V85.0586C42.9577 85.3996 42.6743 85.6836 42.3327 85.6836ZM36.291 84.4336H41.7077V80.8916C41.7077 79.3996 40.491 78.1836 38.9993 78.1836C37.5077 78.1836 36.291 79.3996 36.291 80.8916V84.4336Z" fill="#6562A1"/>
<path d="M24.3945 100V92H25.6016V95.477H29.5899V92H30.8008V100H29.5899V96.512H25.6016V100H24.3945ZM34.9922 100.121C34.4297 100.121 33.9388 99.992 33.5195 99.734C33.1003 99.477 32.7748 99.116 32.543 98.652C32.3112 98.189 32.1953 97.647 32.1953 97.027C32.1953 96.405 32.3112 95.861 32.543 95.395C32.7748 94.928 33.1003 94.566 33.5195 94.309C33.9388 94.051 34.4297 93.922 34.9922 93.922C35.5547 93.922 36.0456 94.051 36.4649 94.309C36.8841 94.566 37.2096 94.928 37.4414 95.395C37.6732 95.861 37.7891 96.405 37.7891 97.027C37.7891 97.647 37.6732 98.189 37.4414 98.652C37.2096 99.116 36.8841 99.477 36.4649 99.734C36.0456 99.992 35.5547 100.121 34.9922 100.121ZM34.9961 99.141C35.3607 99.141 35.6628 99.044 35.9024 98.852C36.1419 98.659 36.319 98.402 36.4336 98.082C36.5508 97.762 36.6094 97.409 36.6094 97.023C36.6094 96.641 36.5508 96.289 36.4336 95.969C36.319 95.646 36.1419 95.387 35.9024 95.191C35.6628 94.996 35.3607 94.898 34.9961 94.898C34.6289 94.898 34.3242 94.996 34.082 95.191C33.8425 95.387 33.6641 95.646 33.5469 95.969C33.4323 96.289 33.375 96.641 33.375 97.023C33.375 97.409 33.4323 97.762 33.5469 98.082C33.6641 98.402 33.8425 98.659 34.082 98.852C34.3242 99.044 34.6289 99.141 34.9961 99.141ZM39.0928 100V94H40.2139V94.977H40.2881C40.4131 94.646 40.6175 94.388 40.9014 94.203C41.1852 94.016 41.5251 93.922 41.9209 93.922C42.322 93.922 42.6579 94.016 42.9287 94.203C43.2022 94.391 43.404 94.648 43.5342 94.977H43.5967C43.7399 94.656 43.9678 94.401 44.2803 94.211C44.5928 94.018 44.9652 93.922 45.3975 93.922C45.9417 93.922 46.3858 94.092 46.7295 94.434C47.0759 94.775 47.249 95.289 47.249 95.977V100H46.0811V96.086C46.0811 95.68 45.9704 95.385 45.749 95.203C45.5277 95.021 45.2634 94.93 44.9561 94.93C44.5759 94.93 44.2803 95.047 44.0693 95.281C43.8584 95.513 43.7529 95.811 43.7529 96.176V100H42.5889V96.012C42.5889 95.686 42.4873 95.424 42.2842 95.227C42.0811 95.029 41.8167 94.93 41.4912 94.93C41.2699 94.93 41.0654 94.988 40.8779 95.105C40.693 95.22 40.5433 95.38 40.4287 95.586C40.3167 95.792 40.2608 96.03 40.2608 96.301V100H39.0928ZM51.4004 100.121C50.8093 100.121 50.3001 99.995 49.8731 99.742C49.4486 99.487 49.1205 99.129 48.8887 98.668C48.6595 98.204 48.5449 97.661 48.5449 97.039C48.5449 96.424 48.6595 95.883 48.8887 95.414C49.1205 94.945 49.4434 94.579 49.8574 94.316C50.2741 94.053 50.7611 93.922 51.3184 93.922C51.6569 93.922 51.985 93.978 52.3027 94.09C52.6205 94.202 52.9056 94.378 53.1582 94.617C53.4108 94.857 53.61 95.168 53.7559 95.551C53.9017 95.931 53.9746 96.393 53.9746 96.937V97.352H49.2051V96.477H52.8301C52.8301 96.169 52.7676 95.897 52.6426 95.66C52.5176 95.421 52.3418 95.232 52.1152 95.094C51.8913 94.956 51.6283 94.887 51.3262 94.887C50.9981 94.887 50.7116 94.967 50.4668 95.129C50.2246 95.288 50.0371 95.496 49.9043 95.754C49.7741 96.009 49.709 96.286 49.709 96.586V97.27C49.709 97.671 49.7793 98.012 49.9199 98.293C50.0632 98.574 50.2624 98.789 50.5176 98.937C50.7728 99.083 51.071 99.156 51.4121 99.156C51.6335 99.156 51.8353 99.125 52.0176 99.062C52.1999 98.997 52.3574 98.901 52.4902 98.773C52.6231 98.646 52.7246 98.488 52.7949 98.301L53.9004 98.5C53.8119 98.826 53.653 99.111 53.4238 99.355C53.1973 99.598 52.9121 99.786 52.5684 99.922C52.2272 100.055 51.8379 100.121 51.4004 100.121Z" fill="#6562A1"/>
<path d="M123.249 85.96H111.999C109.816 85.96 108.041 84.1849 108.041 82.0009V70.335C108.041 69.068 109.066 68.043 110.333 68.043H119.499C120.766 68.043 121.791 69.068 121.791 70.335V83.2509C121.791 84.0509 122.449 84.71 123.249 84.71C123.591 84.71 123.874 84.993 123.874 85.335C123.874 85.676 123.591 85.96 123.249 85.96ZM110.333 69.293C109.758 69.293 109.291 69.76 109.291 70.335V82.0009C109.291 83.4929 110.508 84.71 111.999 84.71H120.966C120.699 84.285 120.541 83.7849 120.541 83.2509V70.335C120.541 69.76 120.074 69.293 119.499 69.293H110.333Z" fill="#6562A1"/>
<path d="M115.332 72.625H111.582C111.24 72.625 110.957 72.342 110.957 72C110.957 71.658 111.24 71.375 111.582 71.375H115.332C115.674 71.375 115.957 71.658 115.957 72C115.957 72.342 115.674 72.625 115.332 72.625Z" fill="#6562A1"/>
<path d="M118.251 75.957H111.584C111.242 75.957 110.959 75.674 110.959 75.332C110.959 74.99 111.242 74.707 111.584 74.707H118.251C118.592 74.707 118.876 74.99 118.876 75.332C118.876 75.674 118.592 75.957 118.251 75.957Z" fill="#6562A1"/>
<path d="M118.251 79.293H111.584C111.242 79.293 110.959 79.01 110.959 78.668C110.959 78.326 111.242 78.043 111.584 78.043H118.251C118.592 78.043 118.876 78.326 118.876 78.668C118.876 79.01 118.592 79.293 118.251 79.293Z" fill="#6562A1"/>
<path d="M118.249 82.625H111.582C111.24 82.625 110.957 82.342 110.957 82C110.957 81.658 111.24 81.375 111.582 81.375H118.249C118.59 81.375 118.874 81.658 118.874 82C118.874 82.342 118.59 82.625 118.249 82.625Z" fill="#6562A1"/>
<path d="M123.667 73.043H122.625V74.293H123.667C124.242 74.293 124.708 74.76 124.708 75.335V83.2509C124.708 83.6599 124.533 84.06 124.225 84.335C123.917 84.618 123.517 84.7429 123.092 84.7009C122.358 84.6259 121.783 83.9349 121.783 83.1349V83.043H120.533V83.1349C120.533 84.5759 121.6 85.8099 122.967 85.9509C123.058 85.9599 123.15 85.968 123.242 85.968C123.908 85.968 124.567 85.7179 125.067 85.2679C125.633 84.7509 125.958 84.0259 125.958 83.2599V75.343C125.958 74.076 124.933 73.051 123.667 73.051V73.043Z" fill="#6562A1"/>
<path d="M101.471 92H102.674V97.672C102.674 98.185 102.572 98.624 102.369 98.988C102.169 99.353 101.886 99.632 101.522 99.824C101.157 100.014 100.73 100.109 100.24 100.109C99.7896 100.109 99.3847 100.027 99.0253 99.863C98.6685 99.699 98.386 99.461 98.1777 99.148C97.9719 98.833 97.8691 98.451 97.8691 98H99.0683C99.0683 98.221 99.1191 98.413 99.2206 98.574C99.3248 98.736 99.4667 98.862 99.6464 98.953C99.8287 99.042 100.037 99.086 100.272 99.086C100.527 99.086 100.743 99.033 100.92 98.926C101.1 98.816 101.236 98.656 101.33 98.445C101.424 98.234 101.471 97.977 101.471 97.672V92ZM106.864 100.121C106.302 100.121 105.811 99.992 105.392 99.734C104.972 99.477 104.647 99.116 104.415 98.652C104.183 98.189 104.067 97.647 104.067 97.027C104.067 96.405 104.183 95.861 104.415 95.395C104.647 94.928 104.972 94.566 105.392 94.309C105.811 94.051 106.302 93.922 106.864 93.922C107.427 93.922 107.918 94.051 108.337 94.309C108.756 94.566 109.082 94.928 109.314 95.395C109.545 95.861 109.661 96.405 109.661 97.027C109.661 97.647 109.545 98.189 109.314 98.652C109.082 99.116 108.756 99.477 108.337 99.734C107.918 99.992 107.427 100.121 106.864 100.121ZM106.868 99.141C107.233 99.141 107.535 99.044 107.774 98.852C108.014 98.659 108.191 98.402 108.306 98.082C108.423 97.762 108.481 97.409 108.481 97.023C108.481 96.641 108.423 96.289 108.306 95.969C108.191 95.646 108.014 95.387 107.774 95.191C107.535 94.996 107.233 94.898 106.868 94.898C106.501 94.898 106.196 94.996 105.954 95.191C105.715 95.387 105.536 95.646 105.419 95.969C105.304 96.289 105.247 96.641 105.247 97.023C105.247 97.409 105.304 97.762 105.419 98.082C105.536 98.402 105.715 98.659 105.954 98.852C106.196 99.044 106.501 99.141 106.868 99.141ZM114.766 97.512V94H115.938V100H114.789V98.961H114.727C114.589 99.281 114.367 99.548 114.063 99.762C113.76 99.973 113.384 100.078 112.934 100.078C112.548 100.078 112.207 99.993 111.91 99.824C111.616 99.652 111.384 99.398 111.215 99.062C111.048 98.727 110.965 98.311 110.965 97.816V94H112.133V97.676C112.133 98.085 112.246 98.41 112.473 98.652C112.699 98.895 112.994 99.016 113.355 99.016C113.574 99.016 113.792 98.961 114.008 98.852C114.227 98.742 114.408 98.577 114.551 98.355C114.697 98.134 114.768 97.853 114.766 97.512ZM117.507 100V94H118.636V94.953H118.698C118.808 94.63 119 94.376 119.276 94.191C119.555 94.004 119.87 93.91 120.222 93.91C120.295 93.91 120.381 93.913 120.48 93.918C120.581 93.923 120.661 93.93 120.718 93.937V95.055C120.671 95.042 120.588 95.027 120.468 95.012C120.348 94.993 120.228 94.984 120.108 94.984C119.832 94.984 119.586 95.043 119.37 95.16C119.157 95.275 118.987 95.435 118.862 95.641C118.737 95.844 118.675 96.076 118.675 96.336V100H117.507ZM122.897 96.437V100H121.729V94H122.85V94.977H122.924C123.062 94.659 123.278 94.404 123.572 94.211C123.869 94.018 124.243 93.922 124.693 93.922C125.102 93.922 125.46 94.008 125.768 94.18C126.075 94.349 126.313 94.602 126.482 94.937C126.652 95.273 126.736 95.689 126.736 96.184V100H125.568V96.324C125.568 95.889 125.455 95.549 125.229 95.305C125.002 95.057 124.691 94.934 124.295 94.934C124.024 94.934 123.783 94.992 123.572 95.109C123.364 95.227 123.199 95.398 123.076 95.625C122.956 95.849 122.897 96.12 122.897 96.437ZM130.049 100.133C129.669 100.133 129.325 100.063 129.018 99.922C128.71 99.779 128.467 99.572 128.287 99.301C128.11 99.03 128.022 98.698 128.022 98.305C128.022 97.966 128.087 97.687 128.217 97.469C128.347 97.25 128.523 97.077 128.744 96.949C128.966 96.822 129.213 96.725 129.486 96.66C129.76 96.595 130.038 96.546 130.322 96.512C130.682 96.47 130.973 96.436 131.197 96.41C131.421 96.382 131.584 96.336 131.686 96.273C131.787 96.211 131.838 96.109 131.838 95.969V95.941C131.838 95.6 131.742 95.336 131.549 95.148C131.359 94.961 131.075 94.867 130.697 94.867C130.304 94.867 129.994 94.954 129.768 95.129C129.544 95.301 129.389 95.492 129.303 95.703L128.205 95.453C128.335 95.089 128.525 94.794 128.775 94.57C129.028 94.344 129.318 94.18 129.647 94.078C129.975 93.974 130.32 93.922 130.682 93.922C130.921 93.922 131.175 93.951 131.443 94.008C131.714 94.062 131.967 94.164 132.201 94.312C132.438 94.461 132.632 94.673 132.783 94.949C132.934 95.223 133.01 95.578 133.01 96.016V100H131.869V99.18H131.822C131.747 99.331 131.633 99.479 131.482 99.625C131.331 99.771 131.137 99.892 130.9 99.988C130.663 100.085 130.38 100.133 130.049 100.133ZM130.303 99.195C130.626 99.195 130.902 99.132 131.131 99.004C131.363 98.876 131.538 98.71 131.658 98.504C131.781 98.296 131.842 98.073 131.842 97.836V97.062C131.8 97.104 131.719 97.143 131.6 97.18C131.482 97.214 131.348 97.243 131.197 97.27C131.046 97.293 130.899 97.315 130.756 97.336C130.613 97.354 130.493 97.37 130.397 97.383C130.17 97.411 129.963 97.46 129.775 97.527C129.591 97.595 129.442 97.693 129.33 97.82C129.221 97.945 129.166 98.112 129.166 98.32C129.166 98.609 129.273 98.828 129.486 98.977C129.7 99.122 129.972 99.195 130.303 99.195ZM135.733 92V100H134.565V92H135.733Z" fill="#6562A1"/>
<path fill-rule="evenodd" clip-rule="evenodd" d="M188.629 82.373C185.265 80.254 185.002 76.402 185.002 76.369C184.982 76.137 185.103 75.905 185.305 75.806C185.689 75.629 186.669 75.221 187.963 75.166H188.054V75.066C188.175 73.543 188.559 72.439 188.731 72.031C188.832 71.81 189.013 71.678 189.216 71.678C189.226 71.678 190.741 71.788 192.338 72.837L192.418 72.892L192.53 72.848C193.489 70.993 194.682 70.121 194.702 70.11C194.803 70.033 194.904 70 195.005 70C195.106 70 195.207 70.033 195.308 70.11C195.328 70.11 196.521 71.004 197.4 72.704L197.45 72.804H197.582C199.188 71.766 200.633 71.656 200.643 71.656C200.865 71.656 201.057 71.777 201.158 71.987C201.33 72.406 201.724 73.499 201.775 74.956V75.055H201.866C203.553 75.177 204.685 75.784 204.695 75.784C204.897 75.894 205.018 76.115 204.998 76.347C204.998 76.391 204.755 80.232 201.381 82.362C199.661 83.44 197.028 84 195 84C192.825 84 190.768 83.725 188.629 82.373ZM189.62 72.958C189.418 73.488 188.579 76.071 190.074 78.885C190.933 80.508 192.055 81.777 193.136 82.351C193.287 82.429 193.429 82.484 193.57 82.539L193.974 82.671L193.833 82.307C193.681 81.899 193.601 81.512 193.57 81.093C193.489 79.956 193.762 78.532 194.338 77.075C194.247 76.744 194.166 76.545 194.065 76.369C192.752 73.874 190.59 73.135 189.731 72.925H189.68L189.63 72.969L189.62 72.958ZM200.158 72.947H200.148C199.33 73.135 197.177 73.874 195.854 76.38C194.995 78.013 194.55 79.691 194.641 81.016C194.692 81.788 194.904 82.274 195.278 82.506C195.44 82.605 195.611 82.649 195.813 82.649C196.096 82.649 196.399 82.561 196.773 82.362C197.854 81.788 198.976 80.519 199.835 78.896C201.108 76.468 200.734 74.205 200.39 73.069L200.37 72.991L200.279 72.925H200.239L200.148 72.958L200.158 72.947ZM201.714 76.479C201.583 77.517 201.249 78.51 200.774 79.459C200.017 80.961 198.642 82.395 198.642 82.395C198.642 82.395 199.744 82.086 200.865 81.347C202.937 79.967 203.644 77.958 203.866 76.854L203.886 76.766L203.816 76.722C203.371 76.479 201.754 76.292 201.754 76.292L201.734 76.468L201.714 76.479ZM186.285 76.634L186.205 76.667V76.755C186.336 77.66 186.669 79.526 189.165 81.347C190.479 82.307 191.347 82.384 191.347 82.384C191.347 82.384 190.014 81.027 189.145 79.448C188.629 78.51 188.326 77.506 188.205 76.468V76.369C188.205 76.369 186.71 76.49 186.285 76.634ZM194.884 71.446C194.56 71.777 193.934 72.484 193.439 73.521L193.409 73.587L193.459 73.642C194.015 74.261 194.449 74.846 194.813 75.464L194.955 75.707L195.096 75.464C195.49 74.779 195.955 74.183 196.49 73.676L196.551 73.62L196.521 73.543C196.066 72.495 195.056 71.269 195.056 71.269L194.884 71.424V71.446Z" fill="#6562A1"/>
<path d="M164.76 91.9997H166.225L168.772 98.2187H168.865L171.412 91.9997H172.877V99.9997H171.729V94.2107H171.654L169.295 99.9877H168.342L165.982 94.2067H165.908V99.9997H164.76V91.9997ZM177.124 100.121C176.533 100.121 176.024 99.9947 175.597 99.7417C175.172 99.4867 174.844 99.1287 174.612 98.6677C174.383 98.2037 174.269 97.6607 174.269 97.0387C174.269 96.4237 174.383 95.8827 174.612 95.4137C174.844 94.9447 175.167 94.5787 175.581 94.3157C175.998 94.0527 176.485 93.9217 177.042 93.9217C177.381 93.9217 177.709 93.9777 178.026 94.0897C178.344 94.2017 178.629 94.3777 178.882 94.6167C179.134 94.8567 179.334 95.1677 179.48 95.5507C179.625 95.9307 179.698 96.3927 179.698 96.9367V97.3517H174.929V96.4767H178.554C178.554 96.1687 178.491 95.8967 178.366 95.6597C178.241 95.4207 178.065 95.2317 177.839 95.0937C177.615 94.9557 177.352 94.8867 177.05 94.8867C176.722 94.8867 176.435 94.9667 176.19 95.1287C175.948 95.2877 175.761 95.4957 175.628 95.7537C175.498 96.0087 175.433 96.2857 175.433 96.5857V97.2697C175.433 97.6707 175.503 98.0117 175.644 98.2927C175.787 98.5737 175.986 98.7887 176.241 98.9367C176.496 99.0827 176.795 99.1557 177.136 99.1557C177.357 99.1557 177.559 99.1247 177.741 99.0617C177.924 98.9967 178.081 98.9007 178.214 98.7727C178.347 98.6457 178.448 98.4877 178.519 98.3007L179.624 98.4997C179.536 98.8257 179.377 99.1107 179.147 99.3547C178.921 99.5977 178.636 99.7857 178.292 99.9217C177.951 100.055 177.562 100.121 177.124 100.121ZM183.24 100.117C182.756 100.117 182.324 99.9927 181.943 99.7457C181.566 99.4957 181.269 99.1407 181.053 98.6797C180.839 98.2157 180.732 97.6597 180.732 97.0117C180.732 96.3627 180.841 95.8087 181.057 95.3477C181.275 94.8867 181.575 94.5337 181.955 94.2887C182.335 94.0437 182.766 93.9217 183.248 93.9217C183.62 93.9217 183.92 93.9837 184.147 94.1087C184.376 94.2317 184.553 94.3747 184.678 94.5387C184.805 94.7027 184.904 94.8477 184.975 94.9727H185.045V91.9997H186.213V99.9997H185.072V99.0657H184.975C184.904 99.1937 184.803 99.3397 184.67 99.5037C184.54 99.6677 184.36 99.8107 184.131 99.9337C183.902 100.056 183.605 100.117 183.24 100.117ZM183.498 99.1207C183.834 99.1207 184.118 99.0327 184.35 98.8547C184.584 98.6757 184.761 98.4267 184.881 98.1087C185.003 97.7917 185.064 97.4217 185.064 96.9997C185.064 96.5827 185.005 96.2187 184.885 95.9057C184.765 95.5937 184.589 95.3497 184.357 95.1757C184.126 95.0007 183.839 94.9137 183.498 94.9137C183.147 94.9137 182.854 95.0047 182.619 95.1877C182.385 95.3697 182.208 95.6177 182.088 95.9337C181.971 96.2487 181.912 96.6037 181.912 96.9997C181.912 97.4007 181.972 97.7617 182.092 98.0817C182.212 98.4017 182.389 98.6557 182.623 98.8437C182.86 99.0287 183.152 99.1207 183.498 99.1207ZM187.88 99.9997V93.9997H189.048V99.9997H187.88ZM188.47 93.0737C188.267 93.0737 188.092 93.0067 187.946 92.8707C187.803 92.7327 187.731 92.5687 187.731 92.3787C187.731 92.1857 187.803 92.0217 187.946 91.8867C188.092 91.7487 188.267 91.6797 188.47 91.6797C188.673 91.6797 188.846 91.7487 188.989 91.8867C189.135 92.0217 189.208 92.1857 189.208 92.3787C189.208 92.5687 189.135 92.7327 188.989 92.8707C188.846 93.0067 188.673 93.0737 188.47 93.0737ZM193.42 93.9997V94.9367H190.143V93.9997H193.42ZM191.022 92.5617H192.189V98.2377C192.189 98.4647 192.223 98.6347 192.291 98.7497C192.359 98.8617 192.446 98.9387 192.553 98.9797C192.662 99.0197 192.781 99.0387 192.908 99.0387C193.002 99.0387 193.084 99.0327 193.154 99.0197C193.225 99.0067 193.279 98.9957 193.318 98.9877L193.529 99.9527C193.462 99.9787 193.365 100.005 193.24 100.031C193.115 100.06 192.959 100.076 192.772 100.078C192.464 100.083 192.178 100.029 191.912 99.9137C191.647 99.7987 191.432 99.6217 191.268 99.3827C191.104 99.1427 191.022 98.8417 191.022 98.4797V92.5617ZM196.458 100.133C196.078 100.133 195.734 100.063 195.427 99.9217C195.119 99.7787 194.876 99.5717 194.696 99.3007C194.519 99.0297 194.431 98.6977 194.431 98.3047C194.431 97.9657 194.496 97.6867 194.626 97.4687C194.756 97.2497 194.932 97.0767 195.153 96.9487C195.375 96.8217 195.622 96.7247 195.896 96.6597C196.169 96.5947 196.448 96.5457 196.731 96.5117C197.091 96.4697 197.383 96.4357 197.606 96.4097C197.83 96.3817 197.993 96.3357 198.095 96.2727C198.196 96.2107 198.247 96.1087 198.247 95.9687V95.9407C198.247 95.5997 198.151 95.3357 197.958 95.1477C197.768 94.9607 197.484 94.8667 197.106 94.8667C196.713 94.8667 196.403 94.9537 196.177 95.1287C195.953 95.3007 195.798 95.4917 195.712 95.7027L194.614 95.4527C194.744 95.0887 194.935 94.7937 195.185 94.5697C195.437 94.3437 195.728 94.1797 196.056 94.0777C196.384 93.9737 196.729 93.9217 197.091 93.9217C197.33 93.9217 197.584 93.9507 197.853 94.0077C198.123 94.0617 198.376 94.1637 198.61 94.3117C198.847 94.4607 199.041 94.6727 199.192 94.9487C199.343 95.2227 199.419 95.5777 199.419 96.0157V99.9997H198.278V99.1797H198.231C198.156 99.3307 198.043 99.4787 197.892 99.6247C197.741 99.7707 197.547 99.8917 197.31 99.9877C197.073 100.085 196.789 100.133 196.458 100.133ZM196.712 99.1947C197.035 99.1947 197.311 99.1317 197.54 99.0037C197.772 98.8757 197.948 98.7097 198.067 98.5037C198.19 98.2957 198.251 98.0727 198.251 97.8357V97.0617C198.209 97.1037 198.129 97.1427 198.009 97.1797C197.892 97.2137 197.758 97.2427 197.606 97.2697C197.455 97.2927 197.308 97.3147 197.165 97.3357C197.022 97.3537 196.902 97.3697 196.806 97.3827C196.579 97.4107 196.372 97.4597 196.185 97.5267C196 97.5947 195.851 97.6927 195.739 97.8197C195.63 97.9447 195.575 98.1117 195.575 98.3197C195.575 98.6087 195.682 98.8277 195.896 98.9767C196.109 99.1217 196.381 99.1947 196.712 99.1947ZM203.775 93.9997V94.9367H200.498V93.9997H203.775ZM201.377 92.5617H202.545V98.2377C202.545 98.4647 202.579 98.6347 202.647 98.7497C202.714 98.8617 202.801 98.9387 202.908 98.9797C203.018 99.0197 203.136 99.0387 203.264 99.0387C203.357 99.0387 203.439 99.0327 203.51 99.0197C203.58 99.0067 203.635 98.9957 203.674 98.9877L203.885 99.9527C203.817 99.9787 203.721 100.005 203.596 100.031C203.471 100.06 203.314 100.076 203.127 100.078C202.82 100.083 202.533 100.029 202.268 99.9137C202.002 99.7987 201.787 99.6217 201.623 99.3827C201.459 99.1427 201.377 98.8417 201.377 98.4797V92.5617ZM205.067 99.9997V93.9997H206.235V99.9997H205.067ZM205.657 93.0737C205.454 93.0737 205.28 93.0067 205.134 92.8707C204.991 92.7327 204.919 92.5687 204.919 92.3787C204.919 92.1857 204.991 92.0217 205.134 91.8867C205.28 91.7487 205.454 91.6797 205.657 91.6797C205.86 91.6797 206.034 91.7487 206.177 91.8867C206.323 92.0217 206.396 92.1857 206.396 92.3787C206.396 92.5687 206.323 92.7327 206.177 92.8707C206.034 93.0067 205.86 93.0737 205.657 93.0737ZM210.334 100.121C209.772 100.121 209.281 99.9917 208.861 99.7337C208.442 99.4767 208.117 99.1157 207.885 98.6517C207.653 98.1887 207.537 97.6467 207.537 97.0267C207.537 96.4047 207.653 95.8607 207.885 95.3947C208.117 94.9277 208.442 94.5657 208.861 94.3087C209.281 94.0507 209.772 93.9217 210.334 93.9217C210.897 93.9217 211.387 94.0507 211.807 94.3087C212.226 94.5657 212.551 94.9277 212.783 95.3947C213.015 95.8607 213.131 96.4047 213.131 97.0267C213.131 97.6467 213.015 98.1887 212.783 98.6517C212.551 99.1157 212.226 99.4767 211.807 99.7337C211.387 99.9917 210.897 100.121 210.334 100.121ZM210.338 99.1407C210.702 99.1407 211.005 99.0437 211.244 98.8517C211.484 98.6587 211.661 98.4017 211.775 98.0817C211.893 97.7617 211.951 97.4087 211.951 97.0227C211.951 96.6407 211.893 96.2887 211.775 95.9687C211.661 95.6457 211.484 95.3867 211.244 95.1907C211.005 94.9957 210.702 94.8977 210.338 94.8977C209.971 94.8977 209.666 94.9957 209.424 95.1907C209.184 95.3867 209.006 95.6457 208.889 95.9687C208.774 96.2887 208.717 96.6407 208.717 97.0227C208.717 97.4087 208.774 97.7617 208.889 98.0817C209.006 98.4017 209.184 98.6587 209.424 98.8517C209.666 99.0437 209.971 99.1407 210.338 99.1407ZM215.603 96.4367V99.9997H214.435V93.9997H215.556V94.9767H215.63C215.768 94.6587 215.984 94.4037 216.278 94.2107C216.575 94.0177 216.949 93.9217 217.399 93.9217C217.808 93.9217 218.166 94.0077 218.474 94.1797C218.781 94.3487 219.019 94.6017 219.188 94.9367C219.358 95.2727 219.442 95.6887 219.442 96.1837V99.9997H218.274V96.3237C218.274 95.8887 218.161 95.5487 217.935 95.3047C217.708 95.0567 217.397 94.9337 217.001 94.9337C216.73 94.9337 216.489 94.9917 216.278 95.1087C216.07 95.2267 215.905 95.3977 215.782 95.6247C215.662 95.8487 215.603 96.1197 215.603 96.4367ZM225.505 95.4647L224.446 95.6517C224.402 95.5167 224.332 95.3877 224.235 95.2657C224.142 95.1427 224.014 95.0427 223.853 94.9647C223.691 94.8867 223.489 94.8477 223.247 94.8477C222.916 94.8477 222.64 94.9217 222.419 95.0697C222.198 95.2157 222.087 95.4047 222.087 95.6367C222.087 95.8367 222.161 95.9987 222.31 96.1207C222.458 96.2427 222.698 96.3437 223.028 96.4217L223.981 96.6407C224.534 96.7677 224.945 96.9647 225.216 97.2297C225.487 97.4957 225.622 97.8407 225.622 98.2657C225.622 98.6247 225.518 98.9447 225.31 99.2267C225.104 99.5047 224.816 99.7237 224.446 99.8827C224.079 100.042 223.653 100.121 223.169 100.121C222.497 100.121 221.949 99.9777 221.524 99.6907C221.1 99.4017 220.84 98.9917 220.743 98.4607L221.872 98.2887C221.942 98.5827 222.087 98.8057 222.306 98.9567C222.524 99.1047 222.81 99.1797 223.161 99.1797C223.544 99.1797 223.85 99.0997 224.079 98.9407C224.308 98.7797 224.423 98.5827 224.423 98.3517C224.423 98.1637 224.353 98.0067 224.212 97.8787C224.074 97.7507 223.862 97.6547 223.575 97.5897L222.56 97.3667C222 97.2397 221.586 97.0357 221.317 96.7577C221.052 96.4787 220.919 96.1257 220.919 95.6987C220.919 95.3447 221.018 95.0347 221.216 94.7697C221.414 94.5037 221.687 94.2967 222.036 94.1477C222.385 93.9967 222.785 93.9217 223.235 93.9217C223.884 93.9217 224.394 94.0617 224.767 94.3437C225.139 94.6217 225.385 94.9957 225.505 95.4647Z" fill="#6562A1"/>
<path d="M266.746 69.998C266.846 70.038 266.961 70.08 267.091 70.124C268.518 70.599 270.08 70.599 271.621 69.811C273.567 68.815 275.542 68.815 277.327 69.41C277.778 69.56 278.113 69.714 278.31 69.826C278.54 69.957 278.681 70.196 278.681 70.455V77.741C278.681 78.302 278.057 78.652 277.56 78.369C277.443 78.303 277.196 78.189 276.844 78.072C275.417 77.596 273.855 77.596 272.314 78.385C270.418 79.355 268.494 79.38 266.746 78.83M266.746 69.998V69M266.746 69.998V78.83M266.746 78.83V85" stroke="#6562A1" stroke-width="1.2" stroke-linecap="round"/>
<path d="M256.102 100V92H258.953C259.573 92 260.087 92.107 260.496 92.32C260.908 92.534 261.215 92.829 261.418 93.207C261.621 93.582 261.723 94.016 261.723 94.508C261.723 94.997 261.62 95.428 261.414 95.801C261.211 96.171 260.904 96.458 260.492 96.664C260.083 96.87 259.569 96.973 258.949 96.973H256.789V95.934H258.84C259.23 95.934 259.548 95.878 259.793 95.766C260.04 95.654 260.221 95.491 260.336 95.277C260.451 95.064 260.508 94.807 260.508 94.508C260.508 94.206 260.449 93.944 260.332 93.723C260.217 93.501 260.036 93.332 259.789 93.215C259.544 93.095 259.223 93.035 258.824 93.035H257.309V100H256.102ZM260.051 96.391L262.027 100H260.652L258.715 96.391H260.051ZM265.608 100.121C265.017 100.121 264.508 99.995 264.081 99.742C263.657 99.487 263.328 99.129 263.097 98.668C262.868 98.204 262.753 97.661 262.753 97.039C262.753 96.424 262.868 95.883 263.097 95.414C263.328 94.945 263.651 94.579 264.065 94.316C264.482 94.053 264.969 93.922 265.526 93.922C265.865 93.922 266.193 93.978 266.511 94.09C266.828 94.202 267.114 94.378 267.366 94.617C267.619 94.857 267.818 95.168 267.964 95.551C268.11 95.931 268.183 96.393 268.183 96.937V97.352H263.413V96.477H267.038C267.038 96.169 266.976 95.897 266.851 95.66C266.726 95.421 266.55 95.232 266.323 95.094C266.099 94.956 265.836 94.887 265.534 94.887C265.206 94.887 264.92 94.967 264.675 95.129C264.433 95.288 264.245 95.496 264.112 95.754C263.982 96.009 263.917 96.286 263.917 96.586V97.27C263.917 97.671 263.987 98.012 264.128 98.293C264.271 98.574 264.47 98.789 264.726 98.937C264.981 99.083 265.279 99.156 265.62 99.156C265.841 99.156 266.043 99.125 266.226 99.062C266.408 98.997 266.565 98.901 266.698 98.773C266.831 98.646 266.933 98.488 267.003 98.301L268.108 98.5C268.02 98.826 267.861 99.111 267.632 99.355C267.405 99.598 267.12 99.786 266.776 99.922C266.435 100.055 266.046 100.121 265.608 100.121ZM269.479 102.25V94H270.619V94.973H270.717C270.785 94.848 270.882 94.703 271.01 94.539C271.137 94.375 271.314 94.232 271.541 94.109C271.768 93.984 272.067 93.922 272.439 93.922C272.924 93.922 273.356 94.044 273.736 94.289C274.117 94.534 274.415 94.887 274.631 95.348C274.85 95.809 274.959 96.363 274.959 97.012C274.959 97.66 274.851 98.216 274.635 98.68C274.419 99.141 274.122 99.496 273.744 99.746C273.367 99.993 272.936 100.117 272.451 100.117C272.087 100.117 271.788 100.056 271.557 99.934C271.327 99.811 271.148 99.668 271.018 99.504C270.887 99.34 270.787 99.194 270.717 99.066H270.647V102.25H269.479ZM270.623 97C270.623 97.422 270.684 97.792 270.807 98.109C270.929 98.427 271.106 98.676 271.338 98.855C271.57 99.033 271.854 99.121 272.189 99.121C272.538 99.121 272.83 99.029 273.064 98.844C273.299 98.656 273.476 98.402 273.596 98.082C273.718 97.762 273.779 97.401 273.779 97C273.779 96.604 273.719 96.249 273.6 95.934C273.482 95.618 273.305 95.37 273.068 95.188C272.834 95.005 272.541 94.914 272.189 94.914C271.851 94.914 271.564 95.001 271.33 95.176C271.098 95.35 270.923 95.594 270.803 95.906C270.683 96.219 270.623 96.583 270.623 97ZM278.795 100.121C278.232 100.121 277.742 99.992 277.322 99.734C276.903 99.477 276.577 99.116 276.346 98.652C276.114 98.189 275.998 97.647 275.998 97.027C275.998 96.405 276.114 95.861 276.346 95.395C276.577 94.928 276.903 94.566 277.322 94.309C277.742 94.051 278.232 93.922 278.795 93.922C279.357 93.922 279.848 94.051 280.268 94.309C280.687 94.566 281.012 94.928 281.244 95.395C281.476 95.861 281.592 96.405 281.592 97.027C281.592 97.647 281.476 98.189 281.244 98.652C281.012 99.116 280.687 99.477 280.268 99.734C279.848 99.992 279.357 100.121 278.795 100.121ZM278.799 99.141C279.163 99.141 279.466 99.044 279.705 98.852C279.945 98.659 280.122 98.402 280.236 98.082C280.354 97.762 280.412 97.409 280.412 97.023C280.412 96.641 280.354 96.289 280.236 95.969C280.122 95.646 279.945 95.387 279.705 95.191C279.466 94.996 279.163 94.898 278.799 94.898C278.432 94.898 278.127 94.996 277.885 95.191C277.645 95.387 277.467 95.646 277.35 95.969C277.235 96.289 277.178 96.641 277.178 97.023C277.178 97.409 277.235 97.762 277.35 98.082C277.467 98.402 277.645 98.659 277.885 98.852C278.127 99.044 278.432 99.141 278.799 99.141ZM282.896 100V94H284.024V94.953H284.087C284.196 94.63 284.389 94.376 284.665 94.191C284.944 94.004 285.259 93.91 285.61 93.91C285.683 93.91 285.769 93.913 285.868 93.918C285.97 93.923 286.049 93.93 286.106 93.937V95.055C286.06 95.042 285.976 95.027 285.856 95.012C285.737 94.993 285.617 94.984 285.497 94.984C285.221 94.984 284.975 95.043 284.759 95.16C284.545 95.275 284.376 95.435 284.251 95.641C284.126 95.844 284.064 96.076 284.064 96.336V100H282.896ZM290.272 94V94.937H286.995V94H290.272ZM287.874 92.562H289.042V98.238C289.042 98.465 289.076 98.635 289.144 98.75C289.211 98.862 289.299 98.939 289.405 98.98C289.515 99.02 289.633 99.039 289.761 99.039C289.855 99.039 289.937 99.033 290.007 99.02C290.077 99.007 290.132 98.996 290.171 98.988L290.382 99.953C290.314 99.979 290.218 100.005 290.093 100.031C289.968 100.06 289.812 100.076 289.624 100.078C289.317 100.083 289.03 100.029 288.765 99.914C288.499 99.799 288.284 99.622 288.12 99.383C287.956 99.143 287.874 98.842 287.874 98.48V92.562Z" fill="#6562A1"/>
<mask id="mask0_12635_35618" style="mask-type:luminance" maskUnits="userSpaceOnUse" x="341" y="67" width="20" height="20">
<path d="M361 67H341V87H361V67Z" fill="white"/>
</mask>
<g mask="url(#mask0_12635_35618)">
<path fill-rule="evenodd" clip-rule="evenodd" d="M344.655 70.628C343.046 72.29 342.027 74.543 342.027 77.01C342.027 78.35 342.295 79.637 342.832 80.763C343.314 81.782 343.958 82.748 344.762 83.499C345.889 80.603 347.873 78.994 351.037 78.994C354.201 78.994 356.185 80.603 357.311 83.499C358.116 82.748 358.759 81.782 359.242 80.763C359.778 79.637 360.046 78.35 360.046 77.01C360.046 74.543 359.027 72.29 357.419 70.628C355.81 69.019 353.504 68 351.037 68C348.57 68 346.264 69.019 344.655 70.628ZM348.463 71.808C349.106 71.164 350.018 70.735 351.037 70.735C353.075 70.735 354.684 72.398 354.684 74.382C354.684 75.401 354.255 76.312 353.611 76.956C352.967 77.599 352.056 78.028 351.037 78.028C350.018 78.028 349.106 77.599 348.463 76.956C347.819 76.312 347.39 75.401 347.39 74.382C347.39 73.363 347.819 72.451 348.463 71.808Z" fill="black"/>
<path d="M351.036 79.7969C348.14 79.7969 346.424 81.2449 345.459 83.9259C346.5 85.4999 349.75 86.4999 351.036 86.4999C352.323 86.4999 355.5 85.4999 356.614 83.9259C355.648 81.2449 353.932 79.7969 351.036 79.7969Z" fill="black"/>
<path fill-rule="evenodd" clip-rule="evenodd" d="M351.038 77.2241C349.482 77.2241 348.195 75.937 348.195 74.381C348.195 72.826 349.482 71.5391 351.038 71.5391C352.593 71.5391 353.88 72.826 353.88 74.381C353.88 75.937 352.593 77.2241 351.038 77.2241ZM351.038 72.183C349.804 72.183 348.839 73.148 348.839 74.381C348.839 75.615 349.804 76.634 351.038 76.634C352.271 76.634 353.236 75.615 353.236 74.381C353.236 73.148 352.271 72.183 351.038 72.183Z" fill="black"/>
</g>
<path d="M338.893 99.9997V91.9997H340.1V98.9607H343.725V99.9997H338.893ZM348.809 97.5117V93.9997H349.98V99.9997H348.832V98.9607H348.77C348.632 99.2807 348.41 99.5477 348.105 99.7617C347.803 99.9727 347.427 100.078 346.977 100.078C346.591 100.078 346.25 99.9927 345.953 99.8237C345.659 99.6517 345.427 99.3977 345.258 99.0617C345.091 98.7267 345.008 98.3107 345.008 97.8157V93.9997H346.176V97.6757C346.176 98.0847 346.289 98.4097 346.516 98.6517C346.742 98.8947 347.036 99.0157 347.398 99.0157C347.617 99.0157 347.835 98.9607 348.051 98.8517C348.27 98.7417 348.451 98.5767 348.594 98.3547C348.74 98.1337 348.811 97.8527 348.809 97.5117ZM351.55 99.9997V93.9997H352.679V94.9527H352.741C352.851 94.6297 353.043 94.3757 353.319 94.1907C353.598 94.0037 353.913 93.9097 354.265 93.9097C354.338 93.9097 354.424 93.9127 354.522 93.9177C354.624 93.9227 354.703 93.9297 354.761 93.9367V95.0547C354.714 95.0417 354.631 95.0267 354.511 95.0117C354.391 94.9927 354.271 94.9837 354.151 94.9837C353.875 94.9837 353.629 95.0427 353.413 95.1597C353.2 95.2747 353.03 95.4347 352.905 95.6407C352.78 95.8437 352.718 96.0757 352.718 96.3357V99.9997H351.55ZM355.772 99.9997V93.9997H356.939V99.9997H355.772ZM356.361 93.0737C356.158 93.0737 355.984 93.0067 355.838 92.8707C355.695 92.7327 355.623 92.5687 355.623 92.3787C355.623 92.1857 355.695 92.0217 355.838 91.8867C355.984 91.7487 356.158 91.6797 356.361 91.6797C356.564 91.6797 356.738 91.7487 356.881 91.8867C357.027 92.0217 357.1 92.1857 357.1 92.3787C357.1 92.5687 357.027 92.7327 356.881 92.8707C356.738 93.0067 356.564 93.0737 356.361 93.0737ZM360.257 100.133C359.877 100.133 359.533 100.063 359.226 99.9217C358.918 99.7787 358.675 99.5717 358.495 99.3007C358.318 99.0297 358.23 98.6977 358.23 98.3047C358.23 97.9657 358.295 97.6867 358.425 97.4687C358.555 97.2497 358.731 97.0767 358.952 96.9487C359.174 96.8217 359.421 96.7247 359.694 96.6597C359.968 96.5947 360.246 96.5457 360.53 96.5117C360.89 96.4697 361.181 96.4357 361.405 96.4097C361.629 96.3817 361.792 96.3357 361.894 96.2727C361.995 96.2107 362.046 96.1087 362.046 95.9687V95.9407C362.046 95.5997 361.95 95.3357 361.757 95.1477C361.567 94.9607 361.283 94.8667 360.905 94.8667C360.512 94.8667 360.202 94.9537 359.976 95.1287C359.752 95.3007 359.597 95.4917 359.511 95.7027L358.413 95.4527C358.543 95.0887 358.733 94.7937 358.983 94.5697C359.236 94.3437 359.526 94.1797 359.855 94.0777C360.183 93.9737 360.528 93.9217 360.89 93.9217C361.129 93.9217 361.383 93.9507 361.651 94.0077C361.922 94.0617 362.175 94.1637 362.409 94.3117C362.646 94.4607 362.84 94.6727 362.991 94.9487C363.142 95.2227 363.218 95.5777 363.218 96.0157V99.9997H362.077V99.1797H362.03C361.955 99.3307 361.841 99.4787 361.69 99.6247C361.539 99.7707 361.345 99.8917 361.108 99.9877C360.871 100.085 360.588 100.133 360.257 100.133ZM360.511 99.1947C360.834 99.1947 361.11 99.1317 361.339 99.0037C361.571 98.8757 361.746 98.7097 361.866 98.5037C361.989 98.2957 362.05 98.0727 362.05 97.8357V97.0617C362.008 97.1037 361.927 97.1427 361.808 97.1797C361.69 97.2137 361.556 97.2427 361.405 97.2697C361.254 97.2927 361.107 97.3147 360.964 97.3357C360.821 97.3537 360.701 97.3697 360.605 97.3827C360.378 97.4107 360.171 97.4597 359.983 97.5267C359.799 97.5947 359.65 97.6927 359.538 97.8197C359.429 97.9447 359.374 98.1117 359.374 98.3197C359.374 98.6087 359.481 98.8277 359.694 98.9767C359.908 99.1217 360.18 99.1947 360.511 99.1947Z" fill="black"/>
<path d="M259.5 129H130.5C129.119 129 128 130.119 128 131.5C128 132.881 129.119 134 130.5 134H259.5C260.881 134 262 132.881 262 131.5C262 130.119 260.881 129 259.5 129Z" fill="#151E2B"/>
</g>
</g>
<defs>
<filter id="filter0_d_12635_35618" x="-12" y="35" width="414" height="122" filterUnits="userSpaceOnUse" color-interpolation-filters="sRGB">
<feFlood flood-opacity="0" result="BackgroundImageFix"/>
<feColorMatrix in="SourceAlpha" type="matrix" values="0 0 0 0 0 0 0 0 0 0 0 0 0 0 0 0 0 0 127 0" result="hardAlpha"/>
<feOffset dy="-4"/>
<feGaussianBlur stdDeviation="6"/>
<feComposite in2="hardAlpha" operator="out"/>
<feColorMatrix type="matrix" values="0 0 0 0 0 0 0 0 0 0 0 0 0 0 0 0 0 0 0.1 0"/>
<feBlend mode="normal" in2="BackgroundImageFix" result="effect1_dropShadow_12635_35618"/>
<feBlend mode="normal" in="SourceGraphic" in2="effect1_dropShadow_12635_35618" result="shape"/>
</filter>
<clipPath id="clip0_12635_35618">
<rect width="390" height="149" fill="white"/>
</clipPath>
</defs>
</svg>
